<mxfile host="app.diagrams.net" modified="2023-05-22T07:05:14.807Z" agent="Mozilla/5.0 (Windows NT 10.0; Win64; x64) AppleWebKit/537.36 (KHTML, like Gecko) Chrome/113.0.0.0 Safari/537.36" etag="CWa5OR8w5IfQgop6rivM" version="21.3.2" type="device">
  <diagram name="페이지-1" id="DeoW3b5tWG1YpYZGeVVm">
    <mxGraphModel dx="1195" dy="657" grid="1" gridSize="10" guides="1" tooltips="1" connect="1" arrows="1" fold="1" page="1" pageScale="1" pageWidth="4681" pageHeight="3300" math="0" shadow="0">
      <root>
        <mxCell id="0" />
        <mxCell id="1" parent="0" />
        <mxCell id="ehKq_JQD1c98MlUJ6Ms2-1" value="관리자(DBA)" style="shape=umlActor;verticalLabelPosition=bottom;verticalAlign=top;html=1;outlineConnect=0;" vertex="1" parent="1">
          <mxGeometry x="280" y="190" width="130" height="200" as="geometry" />
        </mxCell>
        <mxCell id="ehKq_JQD1c98MlUJ6Ms2-2" value="Storage" style="shape=cylinder3;whiteSpace=wrap;html=1;boundedLbl=1;backgroundOutline=1;size=15;" vertex="1" parent="1">
          <mxGeometry x="820" y="250" width="60" height="80" as="geometry" />
        </mxCell>
        <mxCell id="ehKq_JQD1c98MlUJ6Ms2-16" style="edgeStyle=orthogonalEdgeStyle;rounded=0;orthogonalLoop=1;jettySize=auto;html=1;entryX=0;entryY=0.5;entryDx=0;entryDy=0;" edge="1" parent="1" source="ehKq_JQD1c98MlUJ6Ms2-3" target="ehKq_JQD1c98MlUJ6Ms2-15">
          <mxGeometry relative="1" as="geometry" />
        </mxCell>
        <mxCell id="ehKq_JQD1c98MlUJ6Ms2-3" value="Sys 로그인" style="rounded=1;whiteSpace=wrap;html=1;" vertex="1" parent="1">
          <mxGeometry x="480" y="270" width="120" height="40" as="geometry" />
        </mxCell>
        <mxCell id="ehKq_JQD1c98MlUJ6Ms2-4" value="" style="endArrow=classic;html=1;rounded=0;entryX=0;entryY=0.5;entryDx=0;entryDy=0;" edge="1" parent="1" source="ehKq_JQD1c98MlUJ6Ms2-1" target="ehKq_JQD1c98MlUJ6Ms2-3">
          <mxGeometry width="50" height="50" relative="1" as="geometry">
            <mxPoint x="400" y="320" as="sourcePoint" />
            <mxPoint x="450" y="270" as="targetPoint" />
          </mxGeometry>
        </mxCell>
        <mxCell id="ehKq_JQD1c98MlUJ6Ms2-5" value="" style="endArrow=classic;html=1;rounded=0;entryX=0;entryY=0.5;entryDx=0;entryDy=0;entryPerimeter=0;exitX=1;exitY=0.5;exitDx=0;exitDy=0;" edge="1" parent="1" source="ehKq_JQD1c98MlUJ6Ms2-3" target="ehKq_JQD1c98MlUJ6Ms2-2">
          <mxGeometry width="50" height="50" relative="1" as="geometry">
            <mxPoint x="600" y="289.71000000000004" as="sourcePoint" />
            <mxPoint x="670" y="289.71000000000004" as="targetPoint" />
          </mxGeometry>
        </mxCell>
        <mxCell id="ehKq_JQD1c98MlUJ6Ms2-9" style="edgeStyle=orthogonalEdgeStyle;rounded=0;orthogonalLoop=1;jettySize=auto;html=1;entryX=0.5;entryY=0;entryDx=0;entryDy=0;entryPerimeter=0;" edge="1" parent="1" source="ehKq_JQD1c98MlUJ6Ms2-6" target="ehKq_JQD1c98MlUJ6Ms2-8">
          <mxGeometry relative="1" as="geometry">
            <Array as="points">
              <mxPoint x="710" y="360" />
              <mxPoint x="465" y="360" />
            </Array>
          </mxGeometry>
        </mxCell>
        <mxCell id="ehKq_JQD1c98MlUJ6Ms2-6" value="DB User Create&lt;br&gt;DB User DROP&lt;br&gt;DB Alter" style="rounded=1;whiteSpace=wrap;html=1;" vertex="1" parent="1">
          <mxGeometry x="650" y="260" width="120" height="60" as="geometry" />
        </mxCell>
        <mxCell id="ehKq_JQD1c98MlUJ6Ms2-7" value="DDL&lt;br&gt;(Data Definition Lang)" style="text;html=1;strokeColor=none;fillColor=none;align=center;verticalAlign=middle;whiteSpace=wrap;rounded=0;" vertex="1" parent="1">
          <mxGeometry x="650" y="230" width="120" height="30" as="geometry" />
        </mxCell>
        <mxCell id="ehKq_JQD1c98MlUJ6Ms2-11" style="edgeStyle=orthogonalEdgeStyle;rounded=0;orthogonalLoop=1;jettySize=auto;html=1;entryX=0;entryY=0.5;entryDx=0;entryDy=0;" edge="1" parent="1" source="ehKq_JQD1c98MlUJ6Ms2-8" target="ehKq_JQD1c98MlUJ6Ms2-10">
          <mxGeometry relative="1" as="geometry" />
        </mxCell>
        <mxCell id="ehKq_JQD1c98MlUJ6Ms2-8" value="유저(User)" style="shape=umlActor;verticalLabelPosition=bottom;verticalAlign=top;html=1;outlineConnect=0;" vertex="1" parent="1">
          <mxGeometry x="430" y="470" width="70" height="150" as="geometry" />
        </mxCell>
        <mxCell id="ehKq_JQD1c98MlUJ6Ms2-12" style="edgeStyle=orthogonalEdgeStyle;rounded=0;orthogonalLoop=1;jettySize=auto;html=1;entryX=0.5;entryY=1;entryDx=0;entryDy=0;entryPerimeter=0;" edge="1" parent="1" source="ehKq_JQD1c98MlUJ6Ms2-10" target="ehKq_JQD1c98MlUJ6Ms2-2">
          <mxGeometry relative="1" as="geometry" />
        </mxCell>
        <mxCell id="ehKq_JQD1c98MlUJ6Ms2-10" value="User 로그인" style="rounded=1;whiteSpace=wrap;html=1;" vertex="1" parent="1">
          <mxGeometry x="530" y="530" width="80" height="30" as="geometry" />
        </mxCell>
        <mxCell id="ehKq_JQD1c98MlUJ6Ms2-13" value="CREATE INSERT&lt;br&gt;READ SELECT&lt;br&gt;UPDATE UPDATE&lt;br&gt;DELETE DELETE" style="rounded=1;whiteSpace=wrap;html=1;" vertex="1" parent="1">
          <mxGeometry x="770" y="515" width="120" height="60" as="geometry" />
        </mxCell>
        <mxCell id="ehKq_JQD1c98MlUJ6Ms2-14" value="DML&lt;br&gt;(Data Manupulation Lang)" style="text;html=1;strokeColor=none;fillColor=none;align=center;verticalAlign=middle;whiteSpace=wrap;rounded=0;" vertex="1" parent="1">
          <mxGeometry x="750" y="575" width="160" height="30" as="geometry" />
        </mxCell>
        <mxCell id="ehKq_JQD1c98MlUJ6Ms2-17" style="edgeStyle=orthogonalEdgeStyle;rounded=0;orthogonalLoop=1;jettySize=auto;html=1;entryX=0.5;entryY=0;entryDx=0;entryDy=0;entryPerimeter=0;" edge="1" parent="1" source="ehKq_JQD1c98MlUJ6Ms2-15" target="ehKq_JQD1c98MlUJ6Ms2-2">
          <mxGeometry relative="1" as="geometry" />
        </mxCell>
        <mxCell id="ehKq_JQD1c98MlUJ6Ms2-15" value="GRANT REVOCE&lt;br&gt;COMMIT ROLEBACK&amp;nbsp;" style="rounded=1;whiteSpace=wrap;html=1;" vertex="1" parent="1">
          <mxGeometry x="645" y="150" width="130" height="60" as="geometry" />
        </mxCell>
        <mxCell id="ehKq_JQD1c98MlUJ6Ms2-18" value="DCL&lt;br&gt;(Data Control Lang)" style="text;html=1;strokeColor=none;fillColor=none;align=center;verticalAlign=middle;whiteSpace=wrap;rounded=0;" vertex="1" parent="1">
          <mxGeometry x="650" y="120" width="120" height="30" as="geometry" />
        </mxCell>
      </root>
    </mxGraphModel>
  </diagram>
</mxfile>
